<svg width="1024" height="1024" viewBox="0 0 1024 1024" fill="none" xmlns="http://www.w3.org/2000/svg">
<rect width="1024" height="1024" rx="320" fill="#FEF9F7"/>
<path d="M815.86 707.376C821.461 775.347 676.839 842.74 492.838 857.903C308.836 873.066 155.133 830.256 149.531 762.286C143.93 694.315 288.552 626.922 472.554 611.759C656.556 596.596 810.259 639.406 815.86 707.376Z" fill="#3B3B3B"/>
<path d="M837.195 498.347C839.425 535.859 738.298 572.389 611.322 579.938C484.345 587.487 379.602 563.197 377.372 525.685C375.142 488.173 476.269 451.643 603.245 444.094C730.222 436.544 834.965 460.834 837.195 498.347Z" fill="#3B3B3B"/>
<path d="M826.625 342.5C828.346 371.451 758.814 399.137 671.321 404.339C583.828 409.541 511.505 390.288 509.784 361.338C508.062 332.387 577.594 304.701 665.088 299.499C752.581 294.297 824.904 313.549 826.625 342.5Z" fill="#3B3B3B"/>
<path d="M874.137 215.534C868.81 239.715 826.527 250.955 779.695 240.639C732.862 230.324 699.214 202.359 704.54 178.178C709.867 153.997 752.15 142.757 798.982 153.072C845.815 163.388 879.463 191.353 874.137 215.534Z" fill="#3B3B3B"/>
</svg>
