<svg width="2161" height="512" viewBox="0 0 2161 512" fill="none" xmlns="http://www.w3.org/2000/svg">
<path d="M402.755 354.572C405.484 387.695 335.008 420.536 245.343 427.925C155.677 435.314 80.7757 414.453 78.0462 381.33C75.3167 348.207 145.793 315.366 235.458 307.977C325.124 300.588 400.025 321.449 402.755 354.572Z" fill="#3B3B3B"/>
<path d="M413.151 252.71C414.238 270.99 364.958 288.791 303.081 292.47C241.204 296.149 190.162 284.312 189.075 266.032C187.988 247.752 237.268 229.951 299.145 226.272C361.022 222.593 412.065 234.43 413.151 252.71Z" fill="#3B3B3B"/>
<path d="M408.001 176.764C408.839 190.872 374.956 204.364 332.319 206.899C289.683 209.434 254.439 200.052 253.601 185.944C252.762 171.836 286.645 158.345 329.282 155.81C371.918 153.275 407.162 162.656 408.001 176.764Z" fill="#3B3B3B"/>
<path d="M431.153 114.892C428.558 126.676 407.953 132.153 385.131 127.126C362.309 122.099 345.912 108.472 348.507 96.6883C351.103 84.9047 371.708 79.4273 394.53 84.4542C417.352 89.481 433.749 103.109 431.153 114.892Z" fill="#3B3B3B"/>
<path d="M820.691 84.7498H857.439L732.626 240.223L861.57 397H824.605L714.143 263.054L687.832 295.888V396.783H659.13V84.9672H687.832V250.225L820.691 84.7498ZM1105.72 84.7498H1143.99V397H1115.5V318.937H991.559L942.199 397H908.278L1105.72 84.7498ZM1115.5 123.02L1009.61 290.235H1115.5V123.02ZM1216.35 397V83.2277H1245.27V397H1216.35ZM1348.95 227.176H1432.45C1448.11 227.176 1461.51 221.667 1472.68 210.65C1483.69 199.488 1489.2 186.079 1489.2 170.423C1489.2 154.767 1483.69 141.358 1472.68 130.196C1461.51 119.034 1448.11 113.452 1432.45 113.452H1348.95V227.176ZM1454.63 253.052L1529.21 397H1497.03L1423.75 255.879H1348.95V396.783H1320.25V84.7498H1432.45C1456.08 84.7498 1476.23 93.1576 1492.9 109.973C1509.57 126.644 1517.9 146.794 1517.9 170.423C1517.9 189.993 1511.89 207.533 1499.86 223.044C1488.11 238.121 1473.04 248.123 1454.63 253.052ZM1737.92 110.626C1701.96 110.626 1671.23 123.382 1645.72 148.896C1620.21 174.409 1607.45 205.142 1607.45 241.092C1607.45 277.043 1620.21 307.775 1645.72 333.289C1671.23 358.802 1701.96 371.559 1737.92 371.559C1773.87 371.559 1804.6 358.802 1830.11 333.289C1855.62 307.775 1868.38 277.043 1868.38 241.092C1868.38 205.142 1855.62 174.409 1830.11 148.896C1804.6 123.382 1773.87 110.626 1737.92 110.626ZM1737.92 400.262C1693.99 400.262 1656.52 384.678 1625.5 353.511C1594.33 322.489 1578.75 285.016 1578.75 241.092C1578.75 197.169 1594.33 159.623 1625.5 128.456C1656.52 97.4341 1693.99 81.923 1737.92 81.923C1781.84 81.923 1819.38 97.4341 1850.55 128.456C1881.57 159.623 1897.08 197.169 1897.08 241.092C1897.08 285.016 1881.57 322.489 1850.55 353.511C1819.38 384.678 1781.84 400.262 1737.92 400.262ZM2051.86 400.044C2049.98 400.044 2048.09 399.972 2046.21 399.827C2026.06 398.957 2007.58 393.666 1990.76 383.953C1971.62 372.936 1958.65 358.222 1951.84 339.812L1978.8 330.027C1983.44 342.494 1992.86 352.569 2007.07 360.252C2019.53 366.92 2033.02 370.617 2047.51 371.342C2069.69 372.211 2088.25 366.63 2103.18 354.598C2116.51 343.871 2123.55 331.259 2124.27 316.763C2125.43 289.51 2100.5 268.708 2049.47 254.356C2012.65 244.064 1986.34 229.713 1970.54 211.302C1958.51 197.241 1952.85 181.44 1953.58 163.9C1954.88 134.182 1967.49 112.003 1991.41 97.3616C2010.4 85.7645 2033.38 80.6183 2060.34 81.923C2092.81 83.3726 2118.76 94.5348 2138.19 115.409L2117.09 134.979C2103.03 119.758 2083.68 111.568 2059.04 110.408C2037.87 109.538 2020.33 113.307 2006.42 121.715C1991.19 131.138 1983.15 145.634 1982.28 165.204C1981.12 191.877 2006.05 212.39 2057.08 226.741C2093.9 237.033 2120.21 251.457 2136.01 270.012C2148.04 284.219 2153.7 300.165 2152.97 317.85C2151.81 341.189 2141.23 360.904 2121.23 376.995C2102.09 392.361 2078.97 400.044 2051.86 400.044Z" fill="#3B3B3B"/>
</svg>
